<?xml version="1.0" encoding="utf-8"?>
<!-- Generator: Adobe Illustrator 19.0.0, SVG Export Plug-In . SVG Version: 6.00 Build 0)  -->
<svg version="1.1" xmlns="http://www.w3.org/2000/svg" xmlns:xlink="http://www.w3.org/1999/xlink" x="0px" y="0px"
	 viewBox="0 0 838 767.7" style="enable-background:new 0 0 838 767.7;" xml:space="preserve">
<style type="text/css">
	.st0{fill:#3EA79C;}
	.st1{fill:#65C6BC;}
	.st2{fill:#249186;}
	.st3{fill:#CEEBEB;}
	.st4{fill:#9AD7D3;}
	.st5{display:none;}
	.st6{display:inline;fill:none;stroke:#2C3E50;stroke-width:10;stroke-miterlimit:10;stroke-dasharray:30;}
	.st7{fill-rule:evenodd;clip-rule:evenodd;fill:#2C3E50;}
</style>
<g id="france_9_">
	<g id="france_8_">
		<polygon id="XMLID_8_" class="st0" points="-706,220.8 -731.4,251.1 -802,39.3 -706,220.8 		"/>
	</g>
	<g id="france_7_">
		<polygon id="XMLID_11_" class="st1" points="-630.7,199.1 -664,233.8 -674.2,134.4 -630.7,199.1 		"/>
	</g>
	<g id="france_6_">
		<polygon id="XMLID_12_" class="st1" points="-802,39.3 -802,39.3 -731.4,251.1 -842,227.8 		"/>
	</g>
	<g id="france_5_">
		<polygon id="XMLID_15_" class="st2" points="-706,220.8 -802,39.3 -802,39.3 -753,-16.2 		"/>
	</g>
	<g id="france_4_">
		<polygon id="XMLID_16_" class="st0" points="-684.7,32.1 -628.7,46.4 -674.2,134.4 -674.2,134.4 		"/>
	</g>
	<g id="france_3_">
		<polygon id="XMLID_17_" class="st0" points="-664,233.8 -706,220.8 -753,-16.2 -753,-16.2 		"/>
	</g>
	<g id="france_2_">
		<polygon id="XMLID_18_" class="st2" points="-826.1,152.3 -900.8,52.6 -900.8,52.6 -831,60 		"/>
	</g>
	<g id="france_1_">
		<polygon id="XMLID_19_" class="st3" points="-826.1,152.3 -833,24.5 -833,24.5 -802,39.3 		"/>
	</g>
	<g id="france">
		<polygon id="XMLID_20_" class="st4" points="-664,233.8 -664,233.8 -684.7,32.1 -753,-16.2 		"/>
	</g>
</g>
<g id="australie_9_">
	<g id="australie_8_">
		<polygon id="XMLID_1_" class="st2" points="838,422 731.5,636 625,0 625,0 		"/>
	</g>
	<g id="australie_7_">
		<polygon id="XMLID_6_" class="st4" points="731.5,636 558,631 558,631 624.2,-1.4 		"/>
	</g>
	<g id="australie_6_">
		<polygon id="XMLID_4_" class="st2" points="558,631 342,482 342,482 549.2,147.8 		"/>
	</g>
	<g id="australie_5_">
		<polygon id="XMLID_14_" class="st2" points="342,482 0,292 95,584 342,482 		"/>
	</g>
	<g id="australie_4_">
		<polygon id="XMLID_13_" class="st0" points="0,292 342,482 273,68 0,292 		"/>
	</g>
	<g id="australie_3_">
		<polygon id="XMLID_3_" class="st1" points="549.2,147.8 558,631 624.2,-1.4 624.2,-1.4 		"/>
	</g>
	<g id="australie_2_">
		<polygon id="XMLID_2_" class="st1" points="549.2,147.8 342,482 441,16.1 441,16.1 		"/>
	</g>
	<g id="australie_1_">
		<polygon id="XMLID_10_" class="st3" points="342,482 342,482 273,68 441,16.1 		"/>
	</g>
	<g id="australie">
		<polygon id="XMLID_7_" class="st2" points="659.1,767.7 659.1,760.7 624.2,701 702.9,701 		"/>
	</g>
</g>
<g id="pointiller" class="st5">
	<path id="XMLID_22_" class="st6" d="M-664,233.8C-125.9,83.3,378.1,275,558,631"/>
</g>
<g id="avion">
	<g id="Forma_1">
		<g id="XMLID_40_">
			<path id="XMLID_41_" class="st7" d="M-527.1,196.8l-16.7-3.1c-1.1-0.2-2.2-0.2-3.3,0l-35.1,6.3l-65.3-58.3
				c-1.2-1-2.8-1.5-4.4-1.2l-6.7,1.2c-3.6,0.6-5.4,4.6-3.5,7.8L-627,208l-24.9,4.4l-25.6-17.9c-1.1-0.8-2.5-1.1-3.9-0.9l-3.6,0.7
				c-3.6,0.6-5.4,4.7-3.5,7.8l15.2,24.3l-5.8,28.1c-0.7,3.6,2.4,6.8,6,6.1l3.7-0.7c1.4-0.2,2.5-1,3.3-2.1l17.9-25.6l24.9-4.4
				l-12.7,67.1c-0.7,3.6,2.4,6.7,6,6.1l6.7-1.2c1.6-0.3,2.9-1.3,3.7-2.7l41.2-77.2l35.2-6.3c1.1-0.2,2.1-0.6,3.1-1.1l14.6-8.7
				C-522.8,202.1-523.6,197.5-527.1,196.8z"/>
		</g>
	</g>
</g>
</svg>
