<?xml version="1.0" encoding="utf-8"?>
<!-- Generator: Adobe Illustrator 19.0.0, SVG Export Plug-In . SVG Version: 6.00 Build 0)  -->
<svg version="1.1" id="Calque_1" xmlns="http://www.w3.org/2000/svg" xmlns:xlink="http://www.w3.org/1999/xlink" x="0px" y="0px"
	 viewBox="0 0 225.7 113.1" style="enable-background:new 0 0 225.7 113.1;" xml:space="preserve">
<style type="text/css">
	.st0{fill:#3EA79C;}
	.st1{fill:#65C6BC;}
	.st2{fill:#9AD7D3;}
	.st3{fill:#249186;}
</style>
<polygon id="XMLID_66_" class="st0" points="21.4,12.7 4.8,0.5 21.4,19.9 "/>
<polygon id="XMLID_67_" class="st1" points="4.8,51 21.4,19.9 4.8,0.5 "/>
<polygon id="XMLID_68_" class="st2" points="21.4,38.7 4.8,51 21.4,19.9 "/>
<polygon id="XMLID_69_" class="st0" points="31.5,51 21.4,38.7 4.8,51 "/>
<polygon id="XMLID_70_" class="st3" points="21.4,12.7 4.8,0.5 30.3,0.5 "/>
<polygon id="XMLID_71_" class="st0" points="41.8,24.1 21.4,19.9 21.4,31 "/>
<polygon id="XMLID_72_" class="st1" points="31.5,51 29.4,38.7 21.4,38.7 "/>
<polygon id="XMLID_73_" class="st1" points="30.3,0.5 29.4,12.7 21.4,12.7 "/>
<polygon id="XMLID_74_" class="st1" points="41.8,24.1 34.4,34.1 32.1,27.4 "/>
<polygon id="XMLID_75_" class="st0" points="31.5,51 51.5,39.6 29.4,38.7 "/>
<polygon id="XMLID_76_" class="st2" points="34.4,34.1 51.5,39.6 41.8,24.1 "/>
<polygon id="XMLID_77_" class="st0" points="29.4,12.7 50.3,13.2 30.3,0.5 "/>
<polygon id="XMLID_78_" class="st2" points="41.8,24.1 50.3,13.2 33.2,16.3 "/>
<polygon id="XMLID_79_" class="st2" points="82.3,13.9 65.1,4.9 97.5,3.9 "/>
<polygon id="XMLID_80_" class="st1" points="97.5,3.9 109.2,19.9 82.3,13.9 "/>
<polygon id="XMLID_81_" class="st2" points="109.2,19.9 104.9,41 92.3,29.1 "/>
<polygon id="XMLID_82_" class="st0" points="104.9,41 82.3,37.8 82.1,51.7 "/>
<polygon id="XMLID_83_" class="st2" points="82.3,37.8 59.2,41 82.1,51.7 "/>
<polygon id="XMLID_84_" class="st0" points="65.1,4.9 54.9,20.5 82.3,13.9 "/>
<path id="XMLID_53_" class="st0" d="M59.2,41"/>
<polygon id="XMLID_86_" class="st3" points="92.3,29.1 82.3,37.8 104.9,41 "/>
<polygon id="XMLID_87_" class="st3" points="59.2,41 69,48.9 82.1,51.7 "/>
<polygon id="XMLID_88_" class="st1" points="104.9,41 96.4,48.3 82.1,51.7 "/>
<polygon id="XMLID_89_" class="st1" points="109.2,19.9 109.4,30.5 104.9,40.7 "/>
<polygon id="XMLID_90_" class="st0" points="97.5,3.9 82.1,0 65.1,4.9 "/>
<polygon id="XMLID_91_" class="st3" points="82.3,37.8 54.9,20.5 59.2,41 "/>
<polygon id="XMLID_92_" class="st2" points="71.5,24.7 54.9,20.5 82.3,13.9 "/>
<polygon id="XMLID_93_" class="st0" points="71.5,24.7 82.3,37.8 54.9,20.5 "/>
<polygon id="XMLID_94_" class="st0" points="82.3,13.9 92.3,29.1 109.2,19.9 "/>
<polygon id="XMLID_2_" class="st3" points="30.3,0.5 44.3,3.6 50.3,13.2 "/>
<polygon id="XMLID_3_" class="st1" points="41.8,24.1 48.6,19 50.3,13.2 "/>
<polygon id="XMLID_4_" class="st3" points="32.1,27.4 34.4,34.1 21.4,31 "/>
<polygon id="XMLID_5_" class="st1" points="29.4,38.7 34.4,34.1 51.5,39.6 "/>
<polygon id="XMLID_6_" class="st1" points="41.8,24.1 50.5,30.7 51.5,39.6 "/>
<polygon id="XMLID_7_" class="st1" points="31.5,51 44.2,48.4 51.5,39.6 "/>
<polygon id="XMLID_8_" class="st3" points="33.2,16.3 21.4,19.9 41.8,24.1 "/>
<polygon id="XMLID_9_" class="st1" points="29.4,12.7 33.2,16.3 50.3,13.2 "/>
<polygon id="XMLID_10_" class="st1" points="129.7,51 114.5,0.5 114.5,51 "/>
<polygon id="XMLID_11_" class="st3" points="129.7,25.2 114.5,0.5 129.7,51 "/>
<polygon id="XMLID_12_" class="st2" points="128.4,0.5 129.7,25.2 114.5,0.5 "/>
<polygon id="XMLID_13_" class="st1" points="148.4,26.4 129.7,25.2 128.4,0.5 "/>
<polygon id="XMLID_14_" class="st3" points="149.5,51 148.4,26.4 129.7,25.2 "/>
<polygon id="XMLID_15_" class="st2" points="163.5,0.5 149.5,51 148.4,26.4 "/>
<polygon id="XMLID_16_" class="st1" points="148.4,0.5 163.5,0.5 148.4,26.4 "/>
<polygon id="XMLID_17_" class="st1" points="163.5,51 149.5,51 163.5,0.5 "/>
<polygon id="XMLID_29_" class="st3" points="4.8,62.7 21.9,75.9 4.8,75.9 "/>
<polygon id="XMLID_30_" class="st0" points="38.7,62.7 21.9,75.9 4.8,62.7 "/>
<polygon id="XMLID_31_" class="st1" points="38.7,62.7 38.7,96.2 21.9,75.9 "/>
<polygon id="XMLID_32_" class="st2" points="21.9,75.9 21.9,95.8 38.7,96.2 "/>
<polygon id="XMLID_33_" class="st0" points="21.9,95.8 34.9,107.9 38.7,96.2 "/>
<polygon id="XMLID_34_" class="st2" points="34.9,107.9 21.9,95.8 19.8,99.7 "/>
<polygon id="XMLID_35_" class="st3" points="34.9,107.9 24.8,113.5 19.8,99.7 "/>
<polygon id="XMLID_36_" class="st1" points="7.6,94.4 24.8,113.5 19.8,99.7 "/>
<polygon id="XMLID_37_" class="st0" points="7.6,94.4 0,105.2 24.8,113.5 "/>
<polygon id="XMLID_38_" class="st2" points="0,105.2 11.6,112.8 24.8,113.5 "/>
<polygon id="XMLID_106_" class="st2" points="70.5,76.1 53.4,67.2 85.7,66.2 "/>
<polygon id="XMLID_105_" class="st1" points="85.7,66.2 97.4,82.2 70.5,76.1 "/>
<polygon id="XMLID_104_" class="st2" points="97.4,82.2 93.2,103.2 80.5,91.3 "/>
<polygon id="XMLID_103_" class="st0" points="93.2,103.2 70.5,100 70.3,113.9 "/>
<polygon id="XMLID_102_" class="st2" points="70.5,100 47.5,103.2 70.3,113.9 "/>
<polygon id="XMLID_101_" class="st0" points="53.4,67.2 43.1,82.7 70.5,76.1 "/>
<path id="XMLID_100_" class="st0" d="M47.5,103.2"/>
<polygon id="XMLID_99_" class="st3" points="80.5,91.3 70.5,100 93.2,103.2 "/>
<polygon id="XMLID_98_" class="st3" points="47.5,103.2 57.3,111.2 70.3,113.9 "/>
<polygon id="XMLID_97_" class="st1" points="93.2,103.2 84.7,110.5 70.3,113.9 "/>
<polygon id="XMLID_96_" class="st1" points="97.4,82.2 97.6,92.7 93.2,103 "/>
<polygon id="XMLID_95_" class="st0" points="85.7,66.2 70.3,62.2 53.4,67.2 "/>
<polygon id="XMLID_85_" class="st3" points="70.5,100 43.1,82.7 47.5,103.2 "/>
<polygon id="XMLID_54_" class="st2" points="59.7,87 43.1,82.7 70.5,76.1 "/>
<polygon id="XMLID_39_" class="st0" points="59.7,87 70.5,100 43.1,82.7 "/>
<polygon id="XMLID_28_" class="st0" points="70.5,76.1 80.5,91.3 97.4,82.2 "/>
<polygon id="XMLID_108_" class="st1" points="118.7,91.8 102,62.7 118.7,62.7 "/>
<polygon id="XMLID_109_" class="st2" points="150.5,62.7 133.8,91.8 150.5,91.8 "/>
<polygon id="XMLID_110_" class="st3" points="133.8,62.7 133.8,91.8 150.5,62.7 "/>
<polygon id="XMLID_111_" class="st0" points="102,62.7 118.7,91.8 102,91.8 "/>
<polygon id="XMLID_112_" class="st3" points="118.7,91.8 107.1,106.3 102,91.8 "/>
<polygon id="XMLID_113_" class="st1" points="122.3,98.8 118.7,91.8 107.1,106.3 "/>
<polygon id="XMLID_114_" class="st3" points="107.1,106.3 119.1,113.1 122.3,98.8 "/>
<polygon id="XMLID_115_" class="st2" points="122.3,98.8 126.5,100 119.1,113.1 "/>
<polygon id="XMLID_116_" class="st0" points="119.1,113.1 137.7,111.8 126.5,100 "/>
<polygon id="XMLID_117_" class="st3" points="126.5,100 132.1,97.3 137.7,111.8 "/>
<polygon id="XMLID_118_" class="st2" points="137.7,111.8 148.6,101.4 132.1,97.3 "/>
<polygon id="XMLID_119_" class="st0" points="133.8,91.8 132.1,97.3 150.5,91.8 "/>
<polygon id="XMLID_120_" class="st1" points="148.6,101.4 150.5,91.8 132.1,97.3 "/>
<polygon id="XMLID_121_" class="st1" points="157,62.7 181.4,62.7 173.7,75.4 "/>
<polygon id="XMLID_122_" class="st3" points="173.7,75.4 157,113.2 157,62.7 "/>
<polygon id="XMLID_123_" class="st2" points="173.7,87.4 173.7,75.4 157,113.2 "/>
<polygon id="XMLID_124_" class="st0" points="173.7,113.2 173.7,87.4 157,113.2 "/>
<polygon id="XMLID_125_" class="st3" points="179.9,100.1 173.7,87.4 173.7,100.1 "/>
<polygon id="XMLID_126_" class="st1" points="173.7,87.4 181.4,87.4 204.8,113.2 "/>
<polygon id="XMLID_127_" class="st0" points="204.8,113.2 186,113.2 173.7,87.4 "/>
<polygon id="XMLID_128_" class="st0" points="173.7,75.4 181.4,75.4 181.4,62.7 "/>
<polygon id="XMLID_129_" class="st3" points="204.8,113.2 194.9,96.8 181.4,87.4 "/>
<polygon id="XMLID_130_" class="st2" points="194.9,96.8 187.1,82.2 181.4,87.4 "/>
<polygon id="XMLID_131_" class="st0" points="194.9,96.8 202,87.4 187.1,82.2 "/>
<polygon id="XMLID_132_" class="st1" points="187.1,82.2 185.3,76.7 202,87.4 "/>
<polygon id="XMLID_133_" class="st3" points="202,87.4 201.5,73.2 185.3,76.7 "/>
<polygon id="XMLID_134_" class="st2" points="185.3,76.7 181.4,75.4 181.4,62.7 "/>
<polygon id="XMLID_135_" class="st2" points="201.5,73.2 191.2,64.2 185.3,76.7 "/>
<polygon id="XMLID_136_" class="st3" points="181.4,62.7 191.2,64.2 185.3,76.7 "/>
<polygon id="XMLID_137_" class="st2" points="217.8,95.2 209.5,107.8 210,99.7 "/>
<polygon id="XMLID_138_" class="st3" points="217.8,95.2 217.8,113.2 209.5,107.8 "/>
<polygon id="XMLID_139_" class="st1" points="217.8,95.2 225.5,99.7 217.8,113.2 "/>
<polygon id="XMLID_140_" class="st3" points="225.5,99.7 225.7,108.5 217.8,113.2 "/>
</svg>
