<?xml version="1.0" encoding="utf-8"?>
<!-- Generator: Adobe Illustrator 19.0.0, SVG Export Plug-In . SVG Version: 6.00 Build 0)  -->
<svg version="1.1" id="Calque_1" xmlns="http://www.w3.org/2000/svg" xmlns:xlink="http://www.w3.org/1999/xlink" x="0px" y="0px"
	 viewBox="0 0 486 252" style="enable-background:new 0 0 486 252;" xml:space="preserve">
<style type="text/css">
	.st0{fill:#65C6BC;}
	.st1{fill:#CEEBEB;}
	.st2{fill:#3EA79C;}
	.st3{fill:#249186;}
</style>
<polygon id="XMLID_105_" class="st0" points="243,0 486,81 243,180 "/>
<polygon id="XMLID_148_" class="st1" points="396,117 243,180 243,252 "/>
<polygon id="XMLID_147_" class="st2" points="90,117 243,180 243,252 "/>
<polygon id="XMLID_175_" class="st1" points="243,252 90,189 90,117 "/>
<polygon id="XMLID_176_" class="st3" points="243,252 396,189 396,117 "/>
<polyline id="XMLID_203_" class="st1" points="45,99 54,180 54,99 54,99 45,99 45,99 "/>
<polygon id="XMLID_204_" class="st0" points="45,180 45,99 54,180 "/>
<path id="XMLID_205_" class="st1" d="M45,99"/>
<polyline id="XMLID_206_" class="st1" points="36,198 45,180 45,198 "/>
<polyline id="XMLID_207_" class="st2" points="54,180 45,198 45,180 "/>
<polyline id="XMLID_208_" class="st3" points="63,198 54,180 54,198 "/>
<polygon id="XMLID_120_" class="st3" points="243,0 0,81 243,180 "/>
<polyline id="XMLID_209_" class="st0" points="45,198 54,180 54,198 "/>
</svg>
