<?xml version="1.0" encoding="utf-8"?>
<!-- Generator: Adobe Illustrator 19.0.0, SVG Export Plug-In . SVG Version: 6.00 Build 0)  -->
<svg version="1.1" id="Calque_1" xmlns="http://www.w3.org/2000/svg" xmlns:xlink="http://www.w3.org/1999/xlink" x="0px" y="0px"
	 viewBox="0 0 377.8 338.2" style="enable-background:new 0 0 377.8 338.2;" xml:space="preserve">
<style type="text/css">
	.st0{fill:#2C3E50;}
</style>
<g id="XMLID_249_">
	<path id="XMLID_250_" class="st0" d="M258.8,120.3h4.3c12.2,0.4,18.3,5.8,18.3,16c0,6.4-2.5,11.9-7.5,16.3c-5,4.4-11,6.7-18.1,6.7
		h-4.3h-29.3l-31.6,77.9c-3.8,9.8-8.4,19-13.8,27.8c-5.4,8.8-11.3,16.6-17.5,23.5c-8.2,9.3-18.1,16.5-29.8,21.6
		c-11.7,5.1-23.7,7.7-36.1,7.7c-11.1,0-21.4-1.9-31-5.7c-9.5-3.8-17.8-9.1-24.8-16c-7-6.9-12.4-14.9-16.3-24.1
		c-3.9-9.2-5.8-19.4-5.8-30.5c0-16.7,3.8-32.1,11.5-46.5c7.7-14.3,18.1-26.9,31.5-37.6c13.3-10.8,29-19.4,47.1-25.8
		c18.1-6.4,37.7-9.9,58.8-10.3l23-0.7c0.9,0,1.8,0,2.7,0c1.1,0,2.5-0.1,4.3-0.3l31.3-78.6l1.7-4.7c2.4-5.8,5.5-10,9.2-12.7
		c3.7-2.7,8.6-4,14.8-4h5.3h83.3h4.3c12.2,0.4,18.3,5.8,18.3,16c0,6.4-2.5,11.9-7.5,16.3c-5,4.4-11,6.7-18.1,6.7h-4.3h-69.6
		l-25,60.9H258.8z M169.9,159.3c-11.3,0-22.2,1-32.6,3c-10.4,2-19.6,4.9-27.6,8.7c-7.1,3.3-13.7,7.5-19.6,12.5s-11.2,10.4-15.5,16.2
		c-4.3,5.8-7.7,11.8-10.2,18.1c-2.4,6.3-3.7,12.6-3.7,18.8c0,5.6,0.9,10.7,2.7,15.5c1.8,4.8,4.3,8.9,7.5,12.3
		c3.2,3.4,6.9,6.2,11.2,8.2c4.2,2,8.9,3,14,3c7.1,0,14.1-1.8,21-5.3c6.9-3.6,12.5-8.4,17-14.7c1.6-2.2,3.3-4.8,5.2-7.8
		c1.9-3,3.7-6.1,5.5-9.3c1.8-3.2,3.5-6.4,5.2-9.7c1.7-3.2,3-6.2,4.2-8.8l24.6-60.6H169.9z"/>
</g>
</svg>
