<?xml version="1.0" encoding="utf-8"?>
<!-- Generator: Adobe Illustrator 19.0.0, SVG Export Plug-In . SVG Version: 6.00 Build 0)  -->
<svg version="1.1" xmlns="http://www.w3.org/2000/svg" xmlns:xlink="http://www.w3.org/1999/xlink" x="0px" y="0px"
	 viewBox="-345 378.5 64.9 55.3" style="enable-background:new -345 378.5 64.9 55.3;" xml:space="preserve">
<style type="text/css">
	.st0{fill:#3EA79C;}
	.st1{fill:#9AD7D3;}
	.st2{fill:#65C6BC;}
	.st3{fill:#249186;}
	.st4{fill:#AEDFDC;}
	.st5{fill:#D7EFED;}
	.st6{fill:#C2E7E5;}
</style>
<g id="Calque_1">
	<polygon id="XMLID_1_" class="st0" points="-248.8,448.9 -265,420.8 -248.8,392.7 -216.3,392.7 -200.1,420.8 -216.3,448.9 	"/>
	<polygon id="XMLID_3_" class="st1" points="-216.3,392.7 -265,420.8 -248.8,392.7 	"/>
	<polygon id="XMLID_4_" class="st2" points="-200.1,420.8 -216.3,392.7 -265,420.8 	"/>
	<polygon id="XMLID_5_" class="st3" points="-216.3,448.9 -200.1,420.8 -248.8,448.9 	"/>
</g>
<g id="Calque_2">
	<polygon id="XMLID_8_" class="st4" points="-326.3,434.3 -342.5,406.2 -326.3,378.1 -293.8,378.1 -277.6,406.2 -293.8,434.3 	"/>
	<polygon id="XMLID_7_" class="st5" points="-293.8,378.1 -342.5,406.2 -326.3,378.1 	"/>
	<polygon id="XMLID_6_" class="st6" points="-277.6,406.2 -293.8,378.1 -342.5,406.2 	"/>
	<polygon id="XMLID_2_" class="st1" points="-293.8,434.3 -277.6,406.2 -326.3,434.3 	"/>
</g>
</svg>
