<?xml version="1.0" encoding="utf-8"?>
<!-- Generator: Adobe Illustrator 19.0.0, SVG Export Plug-In . SVG Version: 6.00 Build 0)  -->
<svg version="1.1" id="Calque_1" xmlns="http://www.w3.org/2000/svg" xmlns:xlink="http://www.w3.org/1999/xlink" x="0px" y="0px"
	 viewBox="0 0 390.3 108.7" style="enable-background:new 0 0 390.3 108.7;" xml:space="preserve">
<style type="text/css">
	.st0{display:none;}
	.st1{display:inline;}
	.st2{fill:#249186;}
	.st3{fill:#9AD7D3;}
	.st4{fill:#65C6BC;}
	.st5{fill:#3EA79C;}
	.st6{fill:none;stroke:#ED1C24;stroke-miterlimit:10;}
</style>
<g id="XMLID_2_" class="st0">
	<path id="XMLID_5_" class="st1" d="M274.2,0v27.3h-56v13.3h50.8v27.3h-50.8v13.5h57.3v27.3h-93.3V0H274.2z"/>
	<path id="XMLID_7_" class="st1" d="M387.3,27.4c0,10.7-7.1,19.8-18.3,23.2c13,2.9,21.5,13.8,21.5,27.4c0,18.6-17.2,30.5-43.7,30.5
		h-57.7V0h55C370.4,0,387.3,10.9,387.3,27.4z M350.5,33.9c0-4.6-3.3-7.6-8.2-7.6H325v15.5h17.2C347.2,41.9,350.5,38.8,350.5,33.9z
		 M353.2,73.6c0-4.8-4.3-7.9-11-7.9H325v16.6h17.2C348.9,82.3,353.2,78.9,353.2,73.6z"/>
</g>
<g id="XMLID_22_">
	<g id="XMLID_25_">
		<polygon id="XMLID_38_" class="st2" points="175.3,0 139.8,108.7 138.6,0 		"/>
		<polygon id="XMLID_37_" class="st3" points="138.6,0 139.8,108.7 122.4,71.3 		"/>
		<polygon id="XMLID_36_" class="st4" points="122.4,71.3 139.8,108.7 102.8,108.7 		"/>
		<polygon id="XMLID_35_" class="st5" points="106,0 122.4,71.3 87.7,43.7 		"/>
		<polygon id="XMLID_34_" class="st3" points="122.4,71.3 102.8,108.7 87.7,43.7 		"/>
		<polygon id="XMLID_33_" class="st2" points="106,0 87.7,43.7 71,0 		"/>
		<polygon id="XMLID_32_" class="st3" points="71,0 87.7,43.7 72.2,108.7 		"/>
		<polygon id="XMLID_31_" class="st2" points="71,0 72.2,108.7 54.9,72.6 		"/>
		<polygon id="XMLID_30_" class="st5" points="54.9,72.6 72.2,108.7 35.2,108.7 		"/>
		<polygon id="XMLID_29_" class="st3" points="38.4,0 54.9,71.3 0,0 		"/>
		<polygon id="XMLID_28_" class="st3" points="71,0 54.9,72.6 0,0 54.9,71.3 		"/>
		<polygon id="XMLID_27_" class="st4" points="0,0 54.9,72.6 35.2,108.7 		"/>
	</g>
	<g id="XMLID_26_">
	</g>
</g>
<path id="XMLID_11_" class="st6" d="M388.5,0"/>
<polygon id="XMLID_39_" class="st4" points="182.3,0 274.2,0 274.2,27.3 "/>
<polygon id="XMLID_40_" class="st3" points="218.2,27.3 182.3,0 274.2,27.3 "/>
<polygon id="XMLID_41_" class="st5" points="182.3,108.7 218.2,27.3 182.3,0 "/>
<polygon id="XMLID_42_" class="st2" points="218.2,40.6 218.2,27.3 182.3,108.7 "/>
<polygon id="XMLID_43_" class="st2" points="218.2,67.9 218.2,40.6 269.1,67.9 "/>
<polygon id="XMLID_44_" class="st4" points="269.1,40.6 218.2,40.6 269.1,67.9 "/>
<polygon id="XMLID_45_" class="st3" points="218.2,67.9 182.3,108.7 218.2,40.6 "/>
<polygon id="XMLID_47_" class="st2" points="218.2,81.4 218.2,67.9 182.3,108.7 "/>
<path id="XMLID_3_" class="st2" d="M275.6,81.4"/>
<polygon id="XMLID_48_" class="st3" points="275.6,81.4 218.2,81.4 275.6,108.7 "/>
<g id="XMLID_46_">
	<g id="XMLID_52_">
		<polygon id="XMLID_54_" class="st5" points="275.6,108.7 182.3,108.7 218.2,81.4 		"/>
	</g>
	<g id="XMLID_53_">
	</g>
</g>
<polygon id="XMLID_55_" class="st3" points="325,82.3 289.2,108.7 325,26.4 325,83.3 "/>
<polygon id="XMLID_57_" class="st5" points="289.2,0 325,26.4 289.2,108.7 "/>
<polygon id="XMLID_58_" class="st4" points="325,41.9 325,65.7 342.2,41.9 "/>
<polygon id="XMLID_59_" class="st2" points="342.2,65.7 342.2,41.9 325,65.7 "/>
<polygon id="XMLID_60_" class="st5" points="369,50.7 342.2,41.9 342.2,65.7 "/>
<polygon id="XMLID_61_" class="st3" points="289.2,0 350.5,0 325,26.4 "/>
<polygon id="XMLID_62_" class="st5" points="342.2,26.4 350.5,0 325,26.4 "/>
<polygon id="XMLID_63_" class="st2" points="325,82.3 289.2,108.7 353.2,108.7 "/>
<polygon id="XMLID_64_" class="st3" points="344.7,82.3 353.2,108.7 325,82.3 "/>
<polygon id="XMLID_65_" class="st2" points="353.2,73.6 353.2,108.7 344.7,82.3 "/>
<polygon id="XMLID_66_" class="st3" points="353.2,73.6 369,50.7 342.2,65.7 "/>
<polygon id="XMLID_67_" class="st3" points="350.5,33.9 369,50.7 342.2,41.9 "/>
<polygon id="XMLID_68_" class="st3" points="342.2,26.4 350.5,33.9 386.4,33.9 "/>
<polygon id="XMLID_69_" class="st2" points="353.2,73.6 390.3,73.6 369,50.7 "/>
<polygon id="XMLID_70_" class="st2" points="342.2,26.4 350.5,0 386.4,33.9 "/>
<polygon id="XMLID_71_" class="st2" points="369,50.7 386.4,33.9 350.5,33.9 "/>
<polygon id="XMLID_72_" class="st4" points="353.2,108.7 390.3,73.6 353.2,73.6 "/>
<polygon id="XMLID_73_" class="st4" points="350.5,0 378.7,9.7 386.4,33.9 "/>
<polygon id="XMLID_74_" class="st2" points="390.3,73.6 381.9,97.8 353.2,108.7 "/>
<path id="XMLID_56_" class="st2" d="M184.5,190.6"/>
</svg>
