<?xml version="1.0" standalone="no"?>
<!DOCTYPE svg PUBLIC "-//W3C//DTD SVG 1.1//EN" "http://www.w3.org/Graphics/SVG/1.1/DTD/svg11.dtd" >
<svg xmlns="http://www.w3.org/2000/svg">
<metadata>Generated by IcoMoon</metadata>
<defs>
<font id="icomoon" horiz-adv-x="1024">
<font-face units-per-em="1024" ascent="960" descent="-64" />
<missing-glyph horiz-adv-x="1024" />
<glyph unicode="&#x20;" horiz-adv-x="0" d="" />
<glyph unicode="&#xe900;" d="M1024-64l-384 1024h-288l352-1024z" />
<glyph unicode="&#xe901;" d="M0-64h320l320 1024h-288z" />
<glyph unicode="&#xe902;" horiz-adv-x="1118" d="M1117.77 397.113l-142.055-285.445-142.055 848.331z" />
<glyph unicode="&#xe903;" horiz-adv-x="1118" d="M975.714 111.669l-231.424 6.669 88.301 843.53z" />
<glyph unicode="&#xe904;" horiz-adv-x="1118" d="M744.291 118.338l-288.113 198.744 276.375 445.774z" />
<glyph unicode="&#xe905;" horiz-adv-x="1118" d="M456.178 317.082l-456.178 253.432 126.716-389.485 329.462 136.053z" />
<glyph unicode="&#xe906;" horiz-adv-x="1118" d="M0 570.515l456.178-253.432-92.036 552.216-364.142-298.783z" />
<glyph unicode="&#xe907;" horiz-adv-x="1118" d="M732.553 762.856l11.738-644.518 88.301 843.53z" />
<glyph unicode="&#xe908;" horiz-adv-x="1118" d="M732.553 762.856l-276.375-445.774 132.052 621.443z" />
<glyph unicode="&#xe909;" horiz-adv-x="1118" d="M456.178 317.082v0l-92.036 552.216 224.088 69.227z" />
<glyph unicode="&#xe90a;" horiz-adv-x="1118" d="M879.143-64v9.337l-46.552 79.631h104.974z" />
<glyph unicode="&#xe90b;" d="M0 320l1024 384v256l-1024-384z" />
<glyph unicode="&#xe90c;" d="M0 320l1024-384v256l-1024 384z" />
<glyph unicode="&#xe90d;" d="M1024 192l-128-256-896 768 128 256z" />
<glyph unicode="&#xe90e;" d="M0 960h1024v-256h-1024v256z" />
<glyph unicode="&#xe90f;" d="M0 192h1024v-256h-1024v256z" />
<glyph unicode="&#xe975;" horiz-adv-x="1229" d="M0 755.2h1228.8v-819.2z" />
<glyph unicode="&#xe976;" horiz-adv-x="1229" d="M1228.8-64h-1228.8v819.2z" />
<glyph unicode="&#xe977;" horiz-adv-x="1229" d="M460.8 755.2h-102.4v204.8z" />
<glyph unicode="&#xe978;" horiz-adv-x="1229" d="M870.4 755.2h-102.4v204.8z" />
<glyph unicode="&#xe979;" horiz-adv-x="1229" d="M358.4 960h102.4v-204.8z" />
<glyph unicode="&#xe97a;" horiz-adv-x="1229" d="M768 960h102.4v-204.8z" />
<glyph unicode="&#xe97b;" horiz-adv-x="1229" d="M460.8 857.6l307.2 102.4h-307.2z" />
<glyph unicode="&#xe97c;" horiz-adv-x="1229" d="M768 960l-307.2-102.4h307.2z" />
<glyph unicode="&#xe97d;" horiz-adv-x="1975" d="M987.429 960l987.429-329.143-987.429-402.286z" />
<glyph unicode="&#xe97e;" horiz-adv-x="1975" d="M1609.143 484.571l-621.714-256v-292.571z" />
<glyph unicode="&#xe97f;" horiz-adv-x="1975" d="M365.714 484.571l621.714-256v-292.571z" />
<glyph unicode="&#xe980;" horiz-adv-x="1975" d="M987.429-64l-621.714 256v292.571z" />
<glyph unicode="&#xe981;" horiz-adv-x="1975" d="M987.429-64l621.714 256v292.571z" />
<glyph unicode="&#xe982;" horiz-adv-x="1975" d="M182.857 557.714l36.571-329.143v329.143h-36.571z" />
<glyph unicode="&#xe983;" horiz-adv-x="1975" d="M182.857 228.571v329.143l36.571-329.143z" />
<glyph unicode="&#xe985;" horiz-adv-x="1975" d="M146.286 155.429l36.571 73.143v-73.143z" />
<glyph unicode="&#xe986;" horiz-adv-x="1975" d="M219.429 228.571l-36.571-73.143v73.143z" />
<glyph unicode="&#xe987;" horiz-adv-x="1975" d="M256 155.429l-36.571 73.143v-73.143z" />
<glyph unicode="&#xe988;" horiz-adv-x="1975" d="M987.429 960l-987.429-329.143 987.429-402.286z" />
<glyph unicode="&#xe989;" horiz-adv-x="1975" d="M182.857 155.429l36.571 73.143v-73.143z" />
<glyph unicode="&#xe98a;" horiz-adv-x="1183" d="M295.174-64l-295.174 512 295.174 512h592.171l295.174-512-295.174-512z" />
<glyph unicode="&#xe98b;" horiz-adv-x="1183" d="M887.345 960l-887.345-512 295.174 512z" />
<glyph unicode="&#xe98c;" horiz-adv-x="1183" d="M1182.52 448l-295.174 512-887.345-512z" />
<glyph unicode="&#xe98d;" horiz-adv-x="1183" d="M887.345-64l295.174 512-887.345-512z" />
<glyph unicode="&#xe98e;" horiz-adv-x="1183" d="M295.174-64l-295.174 512 295.174 512h592.171l295.174-512-295.174-512z" />
<glyph unicode="&#xe98f;" horiz-adv-x="1183" d="M887.345 960l-887.345-512 295.174 512z" />
<glyph unicode="&#xe990;" horiz-adv-x="1183" d="M1182.52 448l-295.174 512-887.345-512z" />
<glyph unicode="&#xe991;" horiz-adv-x="1183" d="M887.345-64l295.174 512-887.345-512z" />
<glyph unicode="&#xe992;" d="M0-64h320v1024h-320z" />
<glyph unicode="&#xe993;" d="M1024 960h-1024v-320h1024z" />
<glyph unicode="&#xe994;" d="M1024 640h-1024v-320h1024z" />
<glyph unicode="&#xe998;" horiz-adv-x="3677" d="M1651.4 960l-334.425-1024-11.305 1024z" />
<glyph unicode="&#xe999;" horiz-adv-x="3677" d="M1305.671 960l11.305-1024-163.915 352.324z" />
<glyph unicode="&#xe99a;" horiz-adv-x="3677" d="M1153.060 288.324l163.915-352.324h-348.556z" />
<glyph unicode="&#xe99b;" horiz-adv-x="3677" d="M998.565 960l154.495-671.676-326.889 260.004z" />
<glyph unicode="&#xe99c;" horiz-adv-x="3677" d="M1153.060 288.324l-184.64-352.324-142.248 612.328z" />
<glyph unicode="&#xe99d;" horiz-adv-x="3677" d="M998.565 960l-172.394-411.672-157.321 411.672z" />
<glyph unicode="&#xe99e;" horiz-adv-x="3677" d="M668.85 960l157.321-411.672-146.017-612.328z" />
<glyph unicode="&#xe99f;" horiz-adv-x="3677" d="M668.85 960l11.305-1024-162.973 340.077z" />
<glyph unicode="&#xe9a0;" horiz-adv-x="3677" d="M517.181 276.077l162.973-340.077h-348.556z" />
<glyph unicode="&#xe9a1;" horiz-adv-x="3677" d="M361.744 960l155.437-671.676-517.181 671.676z" />
<glyph unicode="&#xe9a2;" horiz-adv-x="3677" d="M668.85 960l-151.669-683.923-517.181 683.923 517.181-671.676z" />
<glyph unicode="&#xe9a3;" horiz-adv-x="3677" d="M0 960l517.181-683.923-185.582-340.077z" />
<glyph unicode="&#xe9a4;" horiz-adv-x="3677" d="M1717.343 960h865.737v-257.178z" />
<glyph unicode="&#xe9a5;" horiz-adv-x="3677" d="M2055.536 702.822l-338.193 257.178 865.737-257.178z" />
<glyph unicode="&#xe9a6;" horiz-adv-x="3677" d="M1717.343-64l338.193 766.822-338.193 257.178z" />
<glyph unicode="&#xe9a7;" horiz-adv-x="3677" d="M2055.536 577.531v125.292l-338.193-766.822z" />
<glyph unicode="&#xe9a8;" horiz-adv-x="3677" d="M2055.536 320.353v257.178l479.5-257.178z" />
<glyph unicode="&#xe9a9;" horiz-adv-x="3677" d="M2535.036 577.531h-479.5l479.5-257.178z" />
<glyph unicode="&#xe9aa;" horiz-adv-x="3677" d="M2055.536 320.353l-338.193-384.353 338.193 641.531z" />
<glyph unicode="&#xe9ab;" horiz-adv-x="3677" d="M2055.536 193.178v127.176l-338.193-384.353z" />
<glyph unicode="&#xe9ad;" horiz-adv-x="3677" d="M2596.269 193.178h-540.732l540.732-257.178z" />
<glyph unicode="&#xe9ae;" horiz-adv-x="3677" d="M2596.269-64h-878.925l338.193 257.178z" />
<glyph unicode="&#xe9af;" horiz-adv-x="3677" d="M3061.638 184.699l-337.251-248.699 337.251 775.301v-536.022z" />
<glyph unicode="&#xe9b0;" horiz-adv-x="3677" d="M2724.386 960l337.251-248.699-337.251-775.301z" />
<glyph unicode="&#xe9b1;" horiz-adv-x="3677" d="M3061.638 565.284v-224.206l162.031 224.206z" />
<glyph unicode="&#xe9b2;" horiz-adv-x="3677" d="M3223.669 341.078v224.206l-162.031-224.206z" />
<glyph unicode="&#xe9b3;" horiz-adv-x="3677" d="M3476.136 482.385l-252.467 82.9v-224.206z" />
<glyph unicode="&#xe9b4;" horiz-adv-x="3677" d="M2724.386 960h577.472l-240.221-248.699z" />
<glyph unicode="&#xe9b5;" horiz-adv-x="3677" d="M3223.669 711.301l78.19 248.699-240.221-248.699z" />
<glyph unicode="&#xe9b6;" horiz-adv-x="3677" d="M3061.638 184.699l-337.251-248.699h602.907z" />
<glyph unicode="&#xe9b7;" horiz-adv-x="3677" d="M3247.22 184.699l80.074-248.699-265.656 248.699z" />
<glyph unicode="&#xe9b8;" horiz-adv-x="3677" d="M3327.293 266.657v-330.657l-80.074 248.699z" />
<glyph unicode="&#xe9b9;" horiz-adv-x="3677" d="M3327.293 266.657l148.843 215.728-252.467-141.306z" />
<glyph unicode="&#xe9ba;" horiz-adv-x="3677" d="M3301.858 640.648l174.278-158.263-252.467 82.9z" />
<glyph unicode="&#xe9bb;" horiz-adv-x="3677" d="M3223.669 711.301l78.19-70.653h338.193z" />
<glyph unicode="&#xe9bc;" horiz-adv-x="3677" d="M3327.293 266.657h349.498l-200.655 215.728z" />
<glyph unicode="&#xe9bd;" horiz-adv-x="3677" d="M3223.669 711.301l78.19 248.699 338.193-319.352z" />
<glyph unicode="&#xe9be;" horiz-adv-x="3677" d="M3476.136 482.385l163.915 158.263h-338.193z" />
<glyph unicode="&#xe9bf;" horiz-adv-x="3677" d="M3327.293-64l349.498 330.657h-349.498z" />
<glyph unicode="&#xe9c0;" horiz-adv-x="3677" d="M3301.858 960l265.656-91.378 72.537-227.974z" />
<glyph unicode="&#xe9c1;" horiz-adv-x="3677" d="M3676.791 266.657l-79.132-227.974-270.366-102.683z" />
</font>
</defs>
</svg>
