<?xml version="1.0" encoding="utf-8"?>
<!-- Generator: Adobe Illustrator 19.0.0, SVG Export Plug-In . SVG Version: 6.00 Build 0)  -->
<svg version="1.1" id="Calque_1" xmlns="http://www.w3.org/2000/svg" xmlns:xlink="http://www.w3.org/1999/xlink" x="0px" y="0px"
	 viewBox="0 0 360 260" style="enable-background:new 0 0 360 260;" xml:space="preserve">
<style type="text/css">
	.st0{fill:#29B99A;}
	.st1{display:none;fill:#FFF200;}
</style>
<rect id="XMLID_29_" x="-17.6" y="-14.4" class="st0" width="197.6" height="305.5"/>
<rect id="XMLID_30_" x="154.4" y="78.9" class="st1" width="77.8" height="102.3"/>
<g id="XMLID_47_">
	<path id="XMLID_48_" d="M73,101.1h13.5v19.6c-5.3,3.5-14.1,6.1-20.9,6.1c-14.9,0-25.8-10.3-25.8-24.5c0-14.1,11.3-24.3,26.8-24.3
		c7.4,0,15.5,2.9,20.6,7.3l-8.9,10.8c-3.2-3.1-7.8-5-11.8-5C60.5,91.2,56,96,56,102.4c0,6.6,4.6,11.3,10.7,11.3
		c1.6,0,3.9-0.6,6.3-1.6V101.1z"/>
	<path id="XMLID_50_" d="M132.6,78.6v12h-24.5v5.8h22.3v12h-22.3v5.9h25.1v12H92.3V78.6H132.6z"/>
</g>
<g id="XMLID_31_">
	<path id="XMLID_32_" d="M89.4,157c0,14.5-10.4,23.8-26.5,23.8H42.2v-47.6h21.3C79.2,133.2,89.4,142.5,89.4,157z M73.2,157.1
		c0-7.1-4-11.7-10.1-11.7H58v23.2h5.9C69.6,168.6,73.2,164.1,73.2,157.1z"/>
	<path id="XMLID_35_" d="M109.5,133.2v47.6H93.8v-47.6H109.5z"/>
	<path id="XMLID_37_" d="M156.1,133.2v12.4h-13.6v35.2h-15.8v-35.2h-13.5v-12.4H156.1z"/>
	<path id="XMLID_39_" d="M200.2,133.2v12h-24.5v5.8h22.3v12h-22.3v5.9h25.1v12h-40.9v-47.6H200.2z"/>
	<path id="XMLID_41_" d="M230.4,145.8c-5.7,0-9.9,4.6-9.9,10.9c0,6.4,4.1,11,9.9,11c3.4,0,7.7-2.1,10.8-5.4l9.1,9.7
		c-5.3,5.8-13.4,9.5-20.7,9.5c-14.6,0-25.2-10.4-25.2-24.6c0-14,10.9-24.2,25.8-24.2c7.3,0,15.2,3.4,20.1,8.7l-9.1,10.8
		C238.4,148.3,234.1,145.8,230.4,145.8z"/>
	<path id="XMLID_43_" d="M269.3,133.2v18.5H284v-18.5h15.8v47.6H284v-17.2h-14.7v17.2h-15.8v-47.6H269.3z"/>
	<path id="XMLID_45_" class="st0" d="M319.2,174.4c0,4.1-2.9,7-7,7c-4.1,0-6.9-2.9-6.9-7c0-4.1,2.9-6.9,6.9-6.9
		C316.3,167.4,319.2,170.3,319.2,174.4z"/>
</g>
</svg>
