<?xml version="1.0" encoding="utf-8"?>
<!-- Generator: Adobe Illustrator 19.0.0, SVG Export Plug-In . SVG Version: 6.00 Build 0)  -->
<svg version="1.1" id="Calque_1" xmlns="http://www.w3.org/2000/svg" xmlns:xlink="http://www.w3.org/1999/xlink" x="0px" y="0px"
	 viewBox="0 0 360 260" style="enable-background:new 0 0 360 260;" xml:space="preserve">
<style type="text/css">
	.st0{fill:#29B99A;}
	.st1{display:none;fill:#FFF200;}
</style>
<rect id="XMLID_29_" x="-17.6" y="-14.4" class="st0" width="197.6" height="305.5"/>
<rect id="XMLID_30_" x="154.4" y="78.9" class="st1" width="77.8" height="102.3"/>
<g id="XMLID_48_">
	<path id="XMLID_49_" d="M64.6,91.2c-5.7,0-9.9,4.6-9.9,10.9c0,6.4,4.1,11,9.9,11c3.4,0,7.7-2.1,10.8-5.4l9.1,9.7
		c-5.3,5.8-13.4,9.5-20.7,9.5c-14.6,0-25.2-10.4-25.2-24.6c0-14,10.9-24.2,25.8-24.2c7.3,0,15.2,3.4,20.1,8.7l-9.1,10.8
		C72.6,93.7,68.3,91.2,64.6,91.2z"/>
	<path id="XMLID_51_" d="M115.1,126.2l-5.7-12.4h-5.9v12.4H87.7V78.6h23c12.9,0,20.3,6.2,20.3,17.1c0,6.9-2.6,12.1-7.5,15.1
		l9.4,15.5H115.1z M103.5,101.9h7.3c3.4,0,5.4-2.1,5.4-5.8c0-3.5-2-5.6-5.4-5.6h-7.3V101.9z"/>
	<path id="XMLID_54_" d="M177.3,78.6v12h-24.5v5.8H175v12h-22.3v5.9h25.1v12H137V78.6H177.3z"/>
</g>
<g id="XMLID_31_">
	<path id="XMLID_32_" d="M73.4,174.4H55.5l-2.4,6.7H36.9L57,133.5h16.2l19.4,47.6H75.8L73.4,174.4z M69.5,163.1l-4.9-13.9l-5,13.9
		H69.5z"/>
	<path id="XMLID_35_" d="M129.6,133.5v12.4h-13.6v35.2h-15.8v-35.2H86.8v-12.4H129.6z"/>
	<path id="XMLID_37_" d="M149.1,133.5v47.6h-15.8v-47.6H149.1z"/>
	<path id="XMLID_39_" d="M205.9,157.3c0,14.1-11,24.5-26.2,24.5s-26.2-10.3-26.2-24.5c0-14.1,11-24.3,26.2-24.3
		S205.9,143.2,205.9,157.3z M169.7,157.3c0,6.5,4.8,11.3,10.2,11.3s9.8-4.8,9.8-11.3c0-6.5-4.3-11.2-9.8-11.2
		C174.4,146.1,169.7,150.8,169.7,157.3z"/>
	<path id="XMLID_42_" d="M223.5,133.5l18.8,24.5v-24.5h14.3v47.6h-13.2l-18.8-24.3v24.3h-14.3v-47.6H223.5z"/>
	<path id="XMLID_44_" d="M282.7,144.8c-1.8,0-2.9,0.5-2.9,2c0,6,24.7,2.2,24.7,19.5c0,10.6-9.3,15.3-20,15.3
		c-8.3,0-17.5-2.8-23.8-7.6l5.8-11.8c4.9,4.1,13.3,7.4,18.1,7.4c2.3,0,3.8-0.7,3.8-2.4c0-6.2-24.7-2.1-24.7-18.8
		c0-9.5,8-15.5,20.4-15.5c7.5,0,15.4,2.2,20.7,5.6l-5.7,12C294.2,147.8,286.8,144.8,282.7,144.8z"/>
	<path id="XMLID_46_" class="st0" d="M321.1,174.7c0,4.1-2.9,7-7,7c-4.1,0-6.9-2.9-6.9-7c0-4.1,2.9-6.9,6.9-6.9
		C318.2,167.7,321.1,170.6,321.1,174.7z"/>
</g>
</svg>
