<?xml version="1.0" encoding="utf-8"?>
<!-- Generator: Adobe Illustrator 19.0.0, SVG Export Plug-In . SVG Version: 6.00 Build 0)  -->
<svg version="1.1" id="Calque_1" xmlns="http://www.w3.org/2000/svg" xmlns:xlink="http://www.w3.org/1999/xlink" x="0px" y="0px"
	 viewBox="0 0 360 260" style="enable-background:new 0 0 360 260;" xml:space="preserve">
<style type="text/css">
	.st0{fill:#29B99A;}
	.st1{display:none;fill:#FFF200;}
</style>
<rect id="XMLID_29_" x="-17.6" y="-14.4" class="st0" width="197.6" height="305.5"/>
<rect id="XMLID_30_" x="154.4" y="78.9" class="st1" width="77.8" height="102.3"/>
<g id="XMLID_39_">
	<path id="XMLID_40_" d="M138.7,78.6v34.5h19.8v13.1h-35.6V78.6H138.7z"/>
	<path id="XMLID_42_" d="M212.5,102.3c0,14.1-11,24.5-26.2,24.5s-26.2-10.3-26.2-24.5c0-14.1,11-24.3,26.2-24.3
		S212.5,88.3,212.5,102.3z M176.4,102.4c0,6.5,4.8,11.3,10.2,11.3c5.4,0,9.8-4.8,9.8-11.3s-4.3-11.2-9.8-11.2
		C181.1,91.2,176.4,95.9,176.4,102.4z"/>
</g>
<g id="XMLID_31_">
	<path id="XMLID_32_" d="M153.7,156.1h13.5v19.6c-5.3,3.5-14.1,6.1-20.9,6.1c-14.9,0-25.8-10.3-25.8-24.5
		c0-14.1,11.3-24.3,26.8-24.3c7.4,0,15.5,2.9,20.6,7.3l-8.9,10.8c-3.2-3.1-7.8-5-11.8-5c-6.1,0-10.6,4.8-10.6,11.2
		c0,6.6,4.6,11.3,10.7,11.3c1.6,0,3.9-0.6,6.3-1.6V156.1z"/>
	<path id="XMLID_34_" d="M223,157.3c0,14.1-11,24.5-26.2,24.5s-26.2-10.3-26.2-24.5c0-14.1,11-24.3,26.2-24.3S223,143.2,223,157.3z
		 M186.9,157.3c0,6.5,4.8,11.3,10.2,11.3s9.8-4.8,9.8-11.3c0-6.5-4.3-11.2-9.8-11.2C191.6,146.1,186.9,150.8,186.9,157.3z"/>
	<path id="XMLID_37_" class="st0" d="M238.4,174.7c0,4.1-2.9,7-7,7c-4.1,0-6.9-2.9-6.9-7c0-4.1,2.9-6.9,6.9-6.9
		C235.6,167.7,238.4,170.6,238.4,174.7z"/>
</g>
</svg>
