<?xml version="1.0" encoding="utf-8"?>
<!-- Generator: Adobe Illustrator 19.0.0, SVG Export Plug-In . SVG Version: 6.00 Build 0)  -->
<svg version="1.1" id="Calque_1" xmlns="http://www.w3.org/2000/svg" xmlns:xlink="http://www.w3.org/1999/xlink" x="0px" y="0px"
	 viewBox="0 0 360 260" style="enable-background:new 0 0 360 260;" xml:space="preserve">
<style type="text/css">
	.st0{fill:#29B99A;}
	.st1{display:none;fill:#FFF200;}
	.st2{display:none;}
	.st3{font-family:'Montserrat-Black';}
	.st4{font-size:67.9524px;}
</style>
<rect id="XMLID_29_" x="-17.6" y="-14.4" class="st0" width="197.6" height="305.5"/>
<rect id="XMLID_30_" x="154.4" y="78.9" class="st1" width="77.8" height="102.3"/>
<text id="XMLID_1_" transform="matrix(1 0 0 1 38.7975 126.187)" class="st2 st3 st4">RACHAT</text>
<g id="XMLID_31_">
	<path id="XMLID_32_" d="M95.4,123.8c0,14.5-10.4,23.8-26.5,23.8H48.3v-47.6h21.3C85.2,100.1,95.4,109.4,95.4,123.8z M79.3,124
		c0-7.1-4-11.7-10.1-11.7H64v23.2H70C75.7,135.5,79.3,131,79.3,124z"/>
	<path id="XMLID_35_" d="M130.9,141H113l-2.4,6.7H94.4l20.1-47.6h16.2l19.4,47.6h-16.8L130.9,141z M127,129.7l-4.9-13.9l-5,13.9H127
		z"/>
	<path id="XMLID_38_" d="M161.8,100.1l7.2,31.3l7.1-31.3h15.4l7.2,31.3l7.1-31.3h16.1l-15.6,47.6H190l-6.6-28.5l-6.8,28.5h-16.2
		L145,100.1H161.8z"/>
	<path id="XMLID_40_" d="M240.6,100.1v47.6h-15.8v-47.6H240.6z"/>
	<path id="XMLID_42_" d="M260.6,100.1l18.8,24.5v-24.5h14.3v47.6h-13.2l-18.8-24.3v24.3h-14.3v-47.6H260.6z"/>
	<path id="XMLID_44_" class="st0" d="M313.1,141.2c0,4.1-2.9,7-7,7c-4.1,0-6.9-2.9-6.9-7c0-4.1,2.9-6.9,6.9-6.9
		C310.2,134.3,313.1,137.2,313.1,141.2z"/>
</g>
</svg>
