<?xml version="1.0" encoding="utf-8"?>
<!-- Generator: Adobe Illustrator 19.0.0, SVG Export Plug-In . SVG Version: 6.00 Build 0)  -->
<svg version="1.1" id="Calque_1" xmlns="http://www.w3.org/2000/svg" xmlns:xlink="http://www.w3.org/1999/xlink" x="0px" y="0px"
	 viewBox="0 0 360 260" style="enable-background:new 0 0 360 260;" xml:space="preserve">
<style type="text/css">
	.st0{fill:#29B99A;}
	.st1{display:none;fill:#FFF200;}
</style>
<rect id="XMLID_29_" x="-17.6" y="-14.4" class="st0" width="197.6" height="305.5"/>
<rect id="XMLID_30_" x="154.4" y="84.6" class="st1" width="77.8" height="90.8"/>
<g id="XMLID_53_">
	<path id="XMLID_54_" d="M33.4,126.4l-5-10.9h-5.2v10.9H9.2V84.3h20.3c11.4,0,17.9,5.5,17.9,15.1c0,6.1-2.3,10.7-6.7,13.3l8.3,13.7
		H33.4z M23.1,104.9h6.4c3,0,4.7-1.9,4.7-5.1c0-3.1-1.7-4.9-4.7-4.9h-6.4V104.9z"/>
	<path id="XMLID_57_" d="M81.3,120.4H65.5l-2.2,5.9H49.1l17.8-42.1h14.3l17.1,42.1H83.4L81.3,120.4z M77.9,110.5l-4.3-12.3
		l-4.4,12.3H77.9z"/>
	<path id="XMLID_60_" d="M120.3,95.5c-5,0-8.7,4-8.7,9.6c0,5.6,3.7,9.7,8.7,9.7c3,0,6.8-1.9,9.5-4.8l8,8.6
		c-4.7,5.1-11.8,8.4-18.3,8.4c-12.9,0-22.3-9.2-22.3-21.7c0-12.4,9.6-21.4,22.8-21.4c6.4,0,13.4,3,17.8,7.7l-8,9.5
		C127.3,97.7,123.5,95.5,120.3,95.5z"/>
	<path id="XMLID_62_" d="M154.6,84.3v16.3h13V84.3h13.9v42.1h-13.9v-15.2h-13v15.2h-13.9V84.3H154.6z"/>
	<path id="XMLID_64_" d="M216.2,120.4h-15.8l-2.2,5.9H184l17.8-42.1H216l17.1,42.1h-14.8L216.2,120.4z M212.8,110.5l-4.3-12.3
		l-4.4,12.3H212.8z"/>
	<path id="XMLID_67_" d="M265.9,84.3v11h-12v31.1h-13.9V95.3H228v-11H265.9z"/>
</g>
<g id="XMLID_31_">
	<path id="XMLID_32_" d="M50.8,154.3c0,12.8-9.2,21.1-23.4,21.1H9.2v-42.1H28C41.8,133.3,50.8,141.5,50.8,154.3z M36.6,154.4
		c0-6.2-3.5-10.3-8.9-10.3h-4.6v20.5h5.2C33.4,164.6,36.6,160.6,36.6,154.4z"/>
	<path id="XMLID_35_" d="M90.3,133.3v10.6H68.6v5.2h19.7v10.6H68.6v5.2h22.2v10.6H54.7v-42.1H90.3z"/>
	<path id="XMLID_37_" d="M135,144.5c-5,0-8.7,4-8.7,9.6c0,5.6,3.7,9.7,8.7,9.7c3,0,6.8-1.9,9.5-4.8l8,8.6
		c-4.7,5.1-11.8,8.4-18.3,8.4c-12.9,0-22.3-9.2-22.3-21.7c0-12.4,9.6-21.4,22.8-21.4c6.4,0,13.4,3,17.8,7.7l-8,9.5
		C142,146.7,138.2,144.5,135,144.5z"/>
	<path id="XMLID_39_" d="M179.6,175.4l-5-10.9h-5.2v10.9h-13.9v-42.1h20.3c11.4,0,17.9,5.5,17.9,15.1c0,6.1-2.3,10.7-6.7,13.3
		l8.3,13.7H179.6z M169.3,153.9h6.4c3,0,4.7-1.9,4.7-5.1c0-3.1-1.7-4.9-4.7-4.9h-6.4V153.9z"/>
	<path id="XMLID_42_" d="M234.5,133.3v10.6h-21.7v5.2h19.7v10.6h-19.7v5.2H235v10.6h-36.1v-42.1H234.5z"/>
	<path id="XMLID_44_" d="M281.9,154.3c0,12.8-9.2,21.1-23.4,21.1h-18.2v-42.1h18.8C272.9,133.3,281.9,141.5,281.9,154.3z
		 M267.7,154.4c0-6.2-3.5-10.3-8.9-10.3h-4.6v20.5h5.2C264.5,164.6,267.7,160.6,267.7,154.4z"/>
	<path id="XMLID_47_" d="M299.8,133.3v42.1h-13.9v-42.1H299.8z"/>
	<path id="XMLID_49_" d="M340.9,133.3v11h-12v31.1H315v-31.1h-11.9v-11H340.9z"/>
	<path id="XMLID_51_" class="st0" d="M352,169.7c0,3.7-2.5,6.2-6.2,6.2c-3.6,0-6.1-2.5-6.1-6.2c0-3.6,2.5-6.1,6.1-6.1
		C349.5,163.6,352,166.1,352,169.7z"/>
</g>
</svg>
