<?xml version="1.0" encoding="utf-8"?>
<!-- Generator: Adobe Illustrator 19.0.0, SVG Export Plug-In . SVG Version: 6.00 Build 0)  -->
<svg version="1.1" id="Calque_1" xmlns="http://www.w3.org/2000/svg" xmlns:xlink="http://www.w3.org/1999/xlink" x="0px" y="0px"
	 viewBox="0 0 360 260" style="enable-background:new 0 0 360 260;" xml:space="preserve">
<style type="text/css">
	.st0{fill:#29B99A;}
	.st1{display:none;fill:#FFF200;}
	.st2{display:none;}
	.st3{font-family:'Montserrat-Black';}
	.st4{font-size:67.9524px;}
</style>
<rect id="XMLID_29_" x="-17.6" y="-14.4" class="st0" width="197.6" height="305.5"/>
<rect id="XMLID_30_" x="154.4" y="78.9" class="st1" width="77.8" height="102.3"/>
<text id="XMLID_1_" transform="matrix(1 0 0 1 38.7975 126.187)" class="st2 st3 st4">RACHAT</text>
<g id="XMLID_31_">
	<path id="XMLID_32_" d="M147.6,117.1c0,11.6-7.1,18.2-19.5,18.2h-6.6v12.4h-15.8v-47.6h22.4C140.5,100.1,147.6,106.2,147.6,117.1z
		 M132.7,117.6c0-3.5-2-5.6-5.4-5.6h-5.8v11.3h5.8C130.7,123.4,132.7,121.3,132.7,117.6z"/>
	<path id="XMLID_35_" d="M174.8,135.2c3.9,0,6.9-3,6.9-7.7v-27.5h15.8v27.5c0,12.6-8.9,20.9-22.7,20.9c-13.9,0-23-8.2-23-20.9v-27.5
		h15.8v27.5C167.5,132.2,170.9,135.2,174.8,135.2z"/>
	<path id="XMLID_37_" d="M241.9,100.1v12h-22.6v8.2h21.1v12h-21.1v15.5h-15.8v-47.6H241.9z"/>
	<path id="XMLID_39_" class="st0" d="M255.6,141.2c0,4.1-2.9,7-7,7c-4.1,0-6.9-2.9-6.9-7c0-4.1,2.9-6.9,6.9-6.9
		C252.7,134.3,255.6,137.2,255.6,141.2z"/>
</g>
</svg>
